<svg width="60" height="60" viewBox="0 0 60 60" fill="none" xmlns="http://www.w3.org/2000/svg">
<path fill-rule="evenodd" clip-rule="evenodd" d="M51.7333 35.8233C52.5963 32.6025 52.7149 29.3577 52.1945 26.2714C51.4977 28.5063 50.2543 30.437 48.6508 31.9525L48.6491 31.9686C47.449 33.1505 46.0343 34.0954 44.479 34.7515C42.7316 35.4886 40.8469 35.8442 38.951 35.7944C37.0551 35.7446 35.1917 35.2906 33.4854 34.4627C31.779 33.6348 30.2691 32.4522 29.0566 30.9939C27.8441 29.5356 26.9569 27.8352 26.4544 26.0064C25.9519 24.1777 25.8456 22.2627 26.1427 20.3895C26.4397 18.5164 27.1333 16.7283 28.177 15.1447C29.1505 13.6677 30.4076 12.4004 31.8742 11.4157C33.7441 10.109 35.9425 9.28528 38.2606 9.06892C37.4732 8.75927 36.6601 8.49075 35.8234 8.26654C23.8204 5.05035 11.4829 12.1735 8.26666 24.1764C5.05047 36.1794 12.1736 48.517 24.1766 51.7332C36.1795 54.9494 48.5171 47.8263 51.7333 35.8233ZM46.9615 37.9993C43.1729 46.0567 34.0496 50.4964 25.1471 48.111C15.1446 45.4308 9.20872 35.1495 11.8889 25.147C13.7398 18.2394 19.2158 13.2711 25.7217 11.7407C25.4136 12.1305 25.1218 12.5339 24.8474 12.9503C23.4913 15.0078 22.5902 17.3311 22.2042 19.7649C21.8182 22.1987 21.9563 24.6869 22.6092 27.063C23.2622 29.4392 24.4149 31.6485 25.9904 33.5433C27.5658 35.4382 29.5276 36.9748 31.7447 38.0504C33.9617 39.1261 36.3829 39.716 38.8463 39.7807C41.3096 39.8454 43.7584 39.3835 46.0289 38.4257C46.3443 38.2926 46.6553 38.1504 46.9615 37.9993ZM48.4883 16.1515L47.5049 13.125L46.5216 16.1515L43.3394 16.1515L45.9138 18.0219L44.9305 21.0484L47.5049 19.1779L50.0794 21.0484L49.096 18.0219L51.6705 16.1515L48.4883 16.1515ZM36.2549 13.125L37.2383 16.1515L40.4205 16.1515L37.846 18.0219L38.8294 21.0484L36.2549 19.1779L33.6805 21.0484L34.6638 18.0219L32.0894 16.1515L35.2716 16.1515L36.2549 13.125ZM42.8633 23.6515L41.8799 20.625L40.8966 23.6515L37.7144 23.6515L40.2888 25.5219L39.3055 28.5484L41.8799 26.6779L44.4544 28.5484L43.471 25.5219L46.0455 23.6515L42.8633 23.6515Z" fill="#343348"/>
<path d="M25.1471 48.111C34.0496 50.4964 43.1729 46.0567 46.9615 37.9993C46.6553 38.1504 46.3443 38.2926 46.0289 38.4257C43.7584 39.3835 41.3096 39.8454 38.8463 39.7807C36.3829 39.716 33.9617 39.1261 31.7447 38.0504C29.5276 36.9748 27.5658 35.4382 25.9904 33.5433C24.4149 31.6485 23.2622 29.4392 22.6092 27.063C21.9563 24.6869 21.8182 22.1987 22.2042 19.7649C22.5902 17.3311 23.4913 15.0078 24.8474 12.9503C25.1218 12.5339 25.4136 12.1305 25.7217 11.7407C19.2158 13.2711 13.7398 18.2394 11.8889 25.147C9.20872 35.1495 15.1446 45.4308 25.1471 48.111Z" fill="#343348"/>
</svg>
