<svg width="60" height="60" viewBox="0 0 60 60" fill="none" xmlns="http://www.w3.org/2000/svg">
<g clip-path="url(#clip0_220_1202)">
<path fill-rule="evenodd" clip-rule="evenodd" d="M45 43.7039H23.0724H22.8258H22.732C12.6896 43.7039 4.28571 35.1965 4.28571 24.3713C4.28571 13.546 12.6896 5.03867 22.732 5.03867C31.2511 5.03867 38.591 11.1608 40.6218 19.6265L40.6283 19.6239C40.9151 20.7985 41.098 22.0163 41.1661 23.266C42.5013 22.5952 43.9868 22.2232 45.5342 22.2232C51.0114 22.2232 55.7143 26.8837 55.7143 32.9635C55.7143 39.0008 51.077 43.6384 45.6492 43.7031L45 43.7039Z" fill="url(#paint0_linear_220_1202)"/>
<g filter="url(#filter0_d_220_1202)">
<path fill-rule="evenodd" clip-rule="evenodd" d="M35.0981 37.8799C35.4913 38.107 36.1072 38.0079 36.4221 37.4622C36.5946 37.1634 36.8163 36.5427 36.9768 35.5323C37.0408 35.1294 37.0891 34.7046 37.1241 34.2683C36.0289 35.0431 35.1992 35.8284 34.7977 36.524C34.4828 37.0697 34.7049 37.6528 35.0981 37.8799ZM37.1145 29.8533C39.0689 28.7583 40.7236 28.1328 40.7236 28.1328C40.7236 28.1328 40.9401 29.8936 40.9485 32.112C40.9578 34.5423 40.7174 37.5219 39.6694 39.3377C38.3515 41.6212 35.4656 42.4227 33.2236 41.1278C30.9816 39.8329 30.2325 36.9321 31.5504 34.6485C32.7005 32.6559 35.0713 30.998 37.1145 29.8533ZM22.7178 39.7881C23.1109 40.0152 23.7268 39.916 24.0418 39.3704C24.2142 39.0715 24.4359 38.4509 24.5965 37.4405C24.6605 37.0376 24.7088 36.6127 24.7437 36.1765C23.6486 36.9513 22.8189 37.7366 22.4174 38.4322C22.1025 38.9779 22.3246 39.561 22.7178 39.7881ZM24.7342 31.7614C26.6886 30.6665 28.3433 30.041 28.3433 30.041C28.3433 30.041 28.5597 31.8017 28.5682 34.0202C28.5774 36.4505 28.3371 39.43 27.2891 41.2459C25.9711 43.5294 23.0853 44.3309 20.8433 43.036C18.6013 41.7411 17.8522 38.8402 19.1701 36.5567C20.3201 34.564 22.691 32.9062 24.7342 31.7614ZM40.6487 48.9616C40.3338 49.5073 39.7179 49.6064 39.3247 49.3794C38.9316 49.1523 38.7094 48.5691 39.0244 48.0235C39.4259 47.3278 40.2556 46.5426 41.3507 45.7678C41.3158 46.204 41.2675 46.6289 41.2035 47.0317C41.0429 48.0422 40.8212 48.6628 40.6487 48.9616ZM44.9502 39.6322C44.9502 39.6322 43.2956 40.2577 41.3412 41.3527C39.2979 42.4974 36.9271 44.1553 35.7771 46.148C34.4591 48.4315 35.2082 51.3324 37.4502 52.6272C39.6922 53.9221 42.5781 53.1207 43.896 50.8371C44.944 49.0213 45.1844 46.0418 45.1752 43.6115C45.1667 41.393 44.9502 39.6322 44.9502 39.6322ZM26.7279 52.3829C27.1211 52.61 27.737 52.5108 28.0519 51.9652C28.2244 51.6663 28.446 51.0457 28.6066 50.0353C28.6706 49.6324 28.7189 49.2075 28.7538 48.7713C27.6587 49.5461 26.829 50.3314 26.4275 51.027C26.1126 51.5727 26.3347 52.1558 26.7279 52.3829ZM28.7443 44.3562C30.6987 43.2613 32.3534 42.6358 32.3534 42.6358C32.3534 42.6358 32.5698 44.3965 32.5783 46.615C32.5876 49.0453 32.3472 52.0248 31.2992 53.8407C29.9813 56.1242 27.0954 56.9256 24.8534 55.6308C22.6114 54.3359 21.8623 51.435 23.1802 49.1515C24.3303 47.1588 26.7011 45.501 28.7443 44.3562Z" fill="url(#paint1_linear_220_1202)"/>
<path d="M28.0519 51.9652C27.737 52.5108 27.1211 52.61 26.7279 52.3829C26.3347 52.1558 26.1126 51.5727 26.4275 51.027C26.829 50.3314 27.6587 49.5461 28.7538 48.7713C28.7189 49.2075 28.6706 49.6324 28.6066 50.0353C28.446 51.0457 28.2244 51.6663 28.0519 51.9652Z" fill="url(#paint2_linear_220_1202)"/>
<path d="M39.3247 49.3794C39.7179 49.6064 40.3338 49.5073 40.6487 48.9616C40.8212 48.6628 41.0429 48.0422 41.2035 47.0317C41.2675 46.6289 41.3158 46.204 41.3507 45.7678C40.2556 46.5426 39.4259 47.3278 39.0244 48.0235C38.7094 48.5691 38.9316 49.1523 39.3247 49.3794Z" fill="url(#paint3_linear_220_1202)"/>
<path d="M36.4221 37.4622C36.1072 38.0079 35.4913 38.107 35.0981 37.8799C34.7049 37.6528 34.4828 37.0697 34.7977 36.524C35.1992 35.8284 36.0289 35.0431 37.1241 34.2683C37.0891 34.7046 37.0408 35.1294 36.9768 35.5323C36.8163 36.5427 36.5946 37.1634 36.4221 37.4622Z" fill="url(#paint4_linear_220_1202)"/>
<path d="M24.0418 39.3704C23.7268 39.916 23.1109 40.0152 22.7178 39.7881C22.3246 39.561 22.1025 38.9779 22.4174 38.4322C22.8189 37.7366 23.6486 36.9513 24.7437 36.1765C24.7088 36.6127 24.6605 37.0376 24.5965 37.4405C24.4359 38.4509 24.2142 39.0715 24.0418 39.3704Z" fill="url(#paint5_linear_220_1202)"/>
</g>
</g>
<defs>
<filter id="filter0_d_220_1202" x="15.5199" y="25.1328" width="32.6555" height="34.1172" filterUnits="userSpaceOnUse" color-interpolation-filters="sRGB">
<feFlood flood-opacity="0" result="BackgroundImageFix"/>
<feColorMatrix in="SourceAlpha" type="matrix" values="0 0 0 0 0 0 0 0 0 0 0 0 0 0 0 0 0 0 127 0" result="hardAlpha"/>
<feOffset/>
<feGaussianBlur stdDeviation="1.5"/>
<feComposite in2="hardAlpha" operator="out"/>
<feColorMatrix type="matrix" values="0 0 0 0 0 0 0 0 0 0 0 0 0 0 0 0 0 0 0.3 0"/>
<feBlend mode="normal" in2="BackgroundImageFix" result="effect1_dropShadow_220_1202"/>
<feBlend mode="normal" in="SourceGraphic" in2="effect1_dropShadow_220_1202" result="shape"/>
</filter>
<linearGradient id="paint0_linear_220_1202" x1="30" y1="0" x2="30" y2="48" gradientUnits="userSpaceOnUse">
<stop stop-color="#B2D4F7"/>
<stop offset="1" stop-color="#D9E2F3"/>
</linearGradient>
<linearGradient id="paint1_linear_220_1202" x1="30" y1="3.75" x2="30" y2="56.2501" gradientUnits="userSpaceOnUse">
<stop offset="1" stop-color="#B8D6F6"/>
</linearGradient>
<linearGradient id="paint2_linear_220_1202" x1="30" y1="3.75" x2="30" y2="56.2501" gradientUnits="userSpaceOnUse">
<stop offset="1" stop-color="#B8D6F6"/>
</linearGradient>
<linearGradient id="paint3_linear_220_1202" x1="30" y1="3.75" x2="30" y2="56.2501" gradientUnits="userSpaceOnUse">
<stop offset="1" stop-color="#B8D6F6"/>
</linearGradient>
<linearGradient id="paint4_linear_220_1202" x1="30" y1="3.75" x2="30" y2="56.2501" gradientUnits="userSpaceOnUse">
<stop offset="1" stop-color="#B8D6F6"/>
</linearGradient>
<linearGradient id="paint5_linear_220_1202" x1="30" y1="3.75" x2="30" y2="56.2501" gradientUnits="userSpaceOnUse">
<stop offset="1" stop-color="#B8D6F6"/>
</linearGradient>
<clipPath id="clip0_220_1202">
<rect width="60" height="60" fill="white"/>
</clipPath>
</defs>
</svg>
