<svg width="60" height="60" viewBox="0 0 60 60" fill="none" xmlns="http://www.w3.org/2000/svg">
<path fill-rule="evenodd" clip-rule="evenodd" d="M28.125 9.375V3.75H31.875V9.375H28.125ZM38.6888 11.2009L41.5013 6.3295L44.7489 8.2045L41.9364 13.0759L38.6888 11.2009ZM30 46.875C39.3198 46.875 46.875 39.3198 46.875 30C46.875 20.6802 39.3198 13.125 30 13.125C20.6802 13.125 13.125 20.6802 13.125 30C13.125 39.3198 20.6802 46.875 30 46.875ZM50.625 28.125H56.25V31.875H50.625V28.125ZM51.7956 15.2512L46.9242 18.0637L48.7992 21.3113L53.6706 18.4988L51.7956 15.2512ZM15.2512 8.2045L18.0637 13.0759L21.3113 11.2009L18.4988 6.3295L15.2512 8.2045ZM11.2008 21.3113L6.32938 18.4988L8.20438 15.2512L13.0758 18.0637L11.2008 21.3113ZM28.125 50.625V56.25H31.875V50.625H28.125ZM9.375 28.125H3.75V31.875H9.375V28.125ZM6.32928 41.5012L11.2007 38.6887L13.0757 41.9363L8.20428 44.7488L6.32928 41.5012ZM18.0638 46.9244L15.2513 51.7958L18.4989 53.6708L21.3114 48.7994L18.0638 46.9244ZM41.5012 53.6708L38.6887 48.7994L41.9363 46.9244L44.7488 51.7958L41.5012 53.6708ZM46.9243 41.9363L51.7957 44.7488L53.6707 41.5012L48.7993 38.6887L46.9243 41.9363Z" fill="url(#paint0_linear_203_843)"/>
<defs>
<linearGradient id="paint0_linear_203_843" x1="30" y1="3.75" x2="30" y2="56.25" gradientUnits="userSpaceOnUse">
<stop stop-color="#F5BD52"/>
<stop offset="1" stop-color="#F5DA79"/>
</linearGradient>
</defs>
</svg>
