<svg width="60" height="60" viewBox="0 0 60 60" fill="none" xmlns="http://www.w3.org/2000/svg">
<path fill-rule="evenodd" clip-rule="evenodd" d="M45 43.7039H23.0724H22.8258H22.732C12.6896 43.7039 4.28571 35.1965 4.28571 24.3713C4.28571 13.546 12.6896 5.03867 22.732 5.03867C31.2511 5.03867 38.591 11.1608 40.6218 19.6265L40.6283 19.6239C40.9151 20.7985 41.098 22.0163 41.1661 23.266C42.5013 22.5952 43.9868 22.2232 45.5342 22.2232C51.0114 22.2232 55.7143 26.8837 55.7143 32.9635C55.7143 39.0008 51.077 43.6384 45.6492 43.7031L45 43.7039Z" fill="url(#paint0_linear_220_1085)"/>
<g filter="url(#filter0_d_220_1085)">
<path fill-rule="evenodd" clip-rule="evenodd" d="M30.8821 29.75L33.8994 31.7763L28.5259 39.8954H37.75L27.8167 53.75L24.8768 51.6113L30.6577 43.5483H21.75L30.8821 29.75Z" fill="url(#paint1_linear_220_1085)"/>
</g>
<defs>
<filter id="filter0_d_220_1085" x="18.75" y="24.75" width="24" height="32" filterUnits="userSpaceOnUse" color-interpolation-filters="sRGB">
<feFlood flood-opacity="0" result="BackgroundImageFix"/>
<feColorMatrix in="SourceAlpha" type="matrix" values="0 0 0 0 0 0 0 0 0 0 0 0 0 0 0 0 0 0 127 0" result="hardAlpha"/>
<feOffset dx="1" dy="-1"/>
<feGaussianBlur stdDeviation="2"/>
<feComposite in2="hardAlpha" operator="out"/>
<feColorMatrix type="matrix" values="0 0 0 0 0 0 0 0 0 0 0 0 0 0 0 0 0 0 0.5 0"/>
<feBlend mode="normal" in2="BackgroundImageFix" result="effect1_dropShadow_220_1085"/>
<feBlend mode="normal" in="SourceGraphic" in2="effect1_dropShadow_220_1085" result="shape"/>
</filter>
<linearGradient id="paint0_linear_220_1085" x1="30" y1="0" x2="30" y2="48" gradientUnits="userSpaceOnUse">
<stop offset="1" stop-color="#7E83A9"/>
</linearGradient>
<linearGradient id="paint1_linear_220_1085" x1="29.75" y1="29.75" x2="29.75" y2="53.75" gradientUnits="userSpaceOnUse">
<stop stop-color="#F5BD52"/>
<stop offset="1" stop-color="#F5DA79"/>
</linearGradient>
</defs>
</svg>
