<svg width="60" height="60" viewBox="0 0 60 60" fill="none" xmlns="http://www.w3.org/2000/svg">
<path fill-rule="evenodd" clip-rule="evenodd" d="M52.2186 21.6998C50.2286 23.6744 47.5542 24.8258 44.7371 24.9176C41.8785 25.0106 39.094 24.0053 36.9651 22.1115C34.8362 20.2177 33.5274 17.5817 33.3121 14.7541C33.1006 11.9775 33.9596 9.22675 35.7121 7.05575C36.6495 5.9274 37.8103 4.98713 39.1276 4.3009C37.5605 3.94051 35.9277 3.75 34.25 3.75C22.3759 3.75 12.75 13.2933 12.75 25.0656C12.75 27.6584 13.217 30.1431 14.072 32.4416C15.089 31.7159 16.2237 31.1422 17.4422 30.7541C16.8247 28.9683 17.4422 30.6411 17.4422 28.6523L22.5 30L30.5 37L36.5 40.5L37.9336 42.2597C38.7246 43.2494 39.2661 44.4439 39.464 45.75C48.8187 43.4397 55.75 35.0551 55.75 25.0656C55.75 22.6404 55.3415 20.3098 54.5889 18.1377C54.0383 19.4773 53.2275 20.6851 52.2186 21.6998Z" fill="#343348"/>
<g filter="url(#filter0_d_219_1006)">
<path fill-rule="evenodd" clip-rule="evenodd" d="M17.6251 51.9668L17.6633 51.9667V51.9677H24.0747L24.0764 51.9701H24.0896L24.0878 51.9677H31.0726C31.0833 51.9686 31.094 51.9694 31.1047 51.9701H31.4951V51.9842L31.5 51.9842C34.5662 51.9842 37.0512 49.4539 37.0512 46.3333C37.0512 43.2127 34.5662 40.6824 31.5 40.6824C30.0791 40.6824 28.7829 41.2257 27.8011 42.1195C27.8056 41.9942 27.8079 41.8684 27.8079 41.7421C27.8079 40.4821 27.5826 39.2752 27.1706 38.16L27.1605 38.1654C25.7217 34.2955 22.0143 31.5158 17.6251 31.5158C11.9713 31.5158 7.44877 36.1279 7.44877 41.7413C7.44877 47.3547 11.9713 51.9668 17.6251 51.9668ZM30.9894 55.7359C31.1584 55.7453 31.3287 55.75 31.5 55.75C36.6086 55.75 40.75 51.534 40.75 46.3333C40.75 41.1326 36.6086 36.9166 31.5 36.9166C31.2191 36.9166 30.9412 36.9293 30.6667 36.9543C28.7279 31.5846 23.6206 27.75 17.6251 27.75C9.96207 27.75 3.75 34.0141 3.75 41.7413C3.75 49.4685 9.96207 55.7326 17.6251 55.7326C17.6289 55.7326 17.6328 55.7326 17.6366 55.7326V55.7359L30.9894 55.7359Z" fill="url(#paint0_linear_219_1006)"/>
<path d="M17.6633 51.9667L17.6251 51.9668C11.9713 51.9668 7.44877 47.3547 7.44877 41.7413C7.44877 36.1279 11.9713 31.5158 17.6251 31.5158C22.0143 31.5158 25.7217 34.2955 27.1605 38.1654L27.1706 38.16C27.5826 39.2752 27.8079 40.4821 27.8079 41.7421C27.8079 41.8684 27.8056 41.9942 27.8011 42.1195C28.7829 41.2257 30.0791 40.6824 31.5 40.6824C34.5662 40.6824 37.0512 43.2127 37.0512 46.3333C37.0512 49.4539 34.5662 51.9842 31.5 51.9842L31.4951 51.9842V51.9701H31.1047L31.0726 51.9677H24.0878L24.0896 51.9701H24.0764L24.0747 51.9677H17.6633V51.9667Z" fill="url(#paint1_linear_219_1006)"/>
</g>
<defs>
<filter id="filter0_d_219_1006" x="1.75" y="21.75" width="45" height="36" filterUnits="userSpaceOnUse" color-interpolation-filters="sRGB">
<feFlood flood-opacity="0" result="BackgroundImageFix"/>
<feColorMatrix in="SourceAlpha" type="matrix" values="0 0 0 0 0 0 0 0 0 0 0 0 0 0 0 0 0 0 127 0" result="hardAlpha"/>
<feOffset dx="2" dy="-2"/>
<feGaussianBlur stdDeviation="2"/>
<feComposite in2="hardAlpha" operator="out"/>
<feColorMatrix type="matrix" values="0 0 0 0 0 0 0 0 0 0 0 0 0 0 0 0 0 0 0.34 0"/>
<feBlend mode="normal" in2="BackgroundImageFix" result="effect1_dropShadow_219_1006"/>
<feBlend mode="normal" in="SourceGraphic" in2="effect1_dropShadow_219_1006" result="shape"/>
</filter>
<linearGradient id="paint0_linear_219_1006" x1="22.25" y1="27.75" x2="22.25" y2="55.75" gradientUnits="userSpaceOnUse">
<stop stop-color="#B2D4F7"/>
<stop offset="1" stop-color="#D9E2F3"/>
</linearGradient>
<linearGradient id="paint1_linear_219_1006" x1="22.25" y1="27.75" x2="22.25" y2="55.75" gradientUnits="userSpaceOnUse">
<stop stop-color="#B2D4F7"/>
<stop offset="1" stop-color="#D9E2F3"/>
</linearGradient>
</defs>
</svg>
