<svg width="60" height="60" viewBox="0 0 60 60" fill="none" xmlns="http://www.w3.org/2000/svg">
<path fill-rule="evenodd" clip-rule="evenodd" d="M45 43.7039H23.0724H22.8258H22.732C12.6896 43.7039 4.28571 35.1965 4.28571 24.3713C4.28571 13.546 12.6896 5.03867 22.732 5.03867C31.2511 5.03867 38.591 11.1608 40.6218 19.6265L40.6283 19.6239C40.9151 20.7985 41.098 22.0163 41.1661 23.266C42.5013 22.5952 43.9868 22.2232 45.5342 22.2232C51.0114 22.2232 55.7143 26.8837 55.7143 32.9635C55.7143 39.0008 51.077 43.6384 45.6492 43.7031L45 43.7039Z" fill="url(#paint0_linear_220_1202)"/>
<path d="M15.7163 36.155L14.7733 52.2644L17.9952 52.453L18.9382 36.3436L15.7163 36.155Z" fill="url(#paint1_linear_220_1202)"/>
<path d="M22.1684 34.1409L21.2255 50.2503L24.4473 50.4389L25.3903 34.3295L22.1684 34.1409Z" fill="url(#paint2_linear_220_1202)"/>
<path d="M27.6608 53.0188L28.6038 36.9094L31.8256 37.098L30.8827 53.2074L27.6608 53.0188Z" fill="url(#paint3_linear_220_1202)"/>
<path d="M35.0651 35.221L34.1221 51.3303L37.344 51.5189L38.2869 35.4096L35.0651 35.221Z" fill="url(#paint4_linear_220_1202)"/>
<path d="M41.5172 37.702L40.5742 53.8114L43.7961 54L44.7391 37.8906L41.5172 37.702Z" fill="url(#paint5_linear_220_1202)"/>
<defs>
<linearGradient id="paint0_linear_220_1202" x1="30" y1="0" x2="30" y2="48" gradientUnits="userSpaceOnUse">
<stop stop-color="#B2D4F7"/>
<stop offset="1" stop-color="#D9E2F3"/>
</linearGradient>
<linearGradient id="paint1_linear_220_1202" x1="15.1505" y1="45.8206" x2="31.2599" y2="46.7636" gradientUnits="userSpaceOnUse">
<stop offset="1" stop-color="#A0BDDD"/>
</linearGradient>
<linearGradient id="paint2_linear_220_1202" x1="15.1505" y1="45.8206" x2="31.2599" y2="46.7636" gradientUnits="userSpaceOnUse">
<stop offset="1" stop-color="#A0BDDD"/>
</linearGradient>
<linearGradient id="paint3_linear_220_1202" x1="15.1505" y1="45.8206" x2="31.2599" y2="46.7636" gradientUnits="userSpaceOnUse">
<stop offset="1" stop-color="#A0BDDD"/>
</linearGradient>
<linearGradient id="paint4_linear_220_1202" x1="34.4992" y1="47.1342" x2="50.6086" y2="48.0771" gradientUnits="userSpaceOnUse">
<stop offset="1" stop-color="#A0BDDD"/>
</linearGradient>
<linearGradient id="paint5_linear_220_1202" x1="34.4992" y1="47.1342" x2="50.6086" y2="48.0771" gradientUnits="userSpaceOnUse">
<stop offset="1" stop-color="#A0BDDD"/>
</linearGradient>
</defs>
</svg>
