<svg width="60" height="60" viewBox="0 0 60 60" fill="none" xmlns="http://www.w3.org/2000/svg">
<path fill-rule="evenodd" clip-rule="evenodd" d="M45 43.7039H23.0724H22.8258H22.732C12.6896 43.7039 4.28571 35.1965 4.28571 24.3713C4.28571 13.546 12.6896 5.03867 22.732 5.03867C31.2511 5.03867 38.591 11.1608 40.6218 19.6265L40.6283 19.6239C40.9151 20.7985 41.098 22.0163 41.1661 23.266C42.5013 22.5952 43.9868 22.2232 45.5342 22.2232C51.0114 22.2232 55.7143 26.8837 55.7143 32.9635C55.7143 39.0008 51.077 43.6384 45.6492 43.7031L45 43.7039Z" fill="url(#paint0_linear_220_1202)"/>
<path d="M36.1228 42.9183C35.2347 41.4248 34.3659 40.3628 34.3659 40.3628C34.3659 40.3628 33.5374 41.4614 32.671 42.9481C31.7219 44.5768 30.7274 46.6712 30.7269 48.2973C30.7263 50.3423 32.3539 52 34.3623 52C36.3707 52 37.9994 50.3423 38 48.2973C38.0005 46.5129 37.0512 44.4797 36.1228 42.9183Z" fill="url(#paint1_linear_220_1202)"/>
<path d="M25.639 36C25.639 36 26.5078 37.062 27.3958 38.5555C28.3243 40.1169 29.2736 42.1501 29.2731 43.9345C29.2725 45.9795 27.6438 47.6372 25.6354 47.6372C23.627 47.6372 21.9994 45.9795 22 43.9345C22.0005 42.3084 22.995 40.214 23.9441 38.5854C24.8105 37.0986 25.639 36 25.639 36Z" fill="url(#paint2_linear_220_1202)"/>
<defs>
<linearGradient id="paint0_linear_220_1202" x1="30" y1="0" x2="30" y2="48" gradientUnits="userSpaceOnUse">
<stop stop-color="#B2D4F7"/>
<stop offset="1" stop-color="#D9E2F3"/>
</linearGradient>
<linearGradient id="paint1_linear_220_1202" x1="30" y1="36" x2="30" y2="52" gradientUnits="userSpaceOnUse">
<stop stop-color="#A7BDE8"/>
</linearGradient>
<linearGradient id="paint2_linear_220_1202" x1="30" y1="36" x2="30" y2="52" gradientUnits="userSpaceOnUse">
<stop stop-color="#A7BDE8"/>
</linearGradient>
</defs>
</svg>
