<svg width="60" height="60" viewBox="0 0 60 60" fill="none" xmlns="http://www.w3.org/2000/svg">
<path fill-rule="evenodd" clip-rule="evenodd" d="M26.2396 30.0022L16.6518 35.61L9.05192 32.1214L7.49182 35.5533L12.6783 37.9341L9.82546 39.6027L11.6823 42.8607L14.5346 41.1924L13.9767 46.9321L17.6906 47.2793L18.5081 38.8683L28.1004 33.2579V44.5366L21.313 49.4628L23.5158 52.4977L28.1004 49.1702V52.5H31.8504V49.17L36.4353 52.4977L38.638 49.4628L31.8504 44.5364V33.284L41.4641 38.9069L42.2818 47.3188L45.9956 46.9715L45.4376 41.2309L48.2906 42.8996L50.1474 39.6416L47.2948 37.9731L52.4805 35.5927L50.9204 32.1609L43.3213 35.6491L33.6667 30.0022L43.2915 24.3728L50.9408 27.8841L52.5009 24.4522L47.265 22.0488L50.1511 20.3607L48.2943 17.1027L45.4634 18.7584L46.016 13.0734L42.3022 12.7262L41.4899 21.0825L31.8504 26.7205V15.5016L38.6816 10.5436L36.4789 7.50874L31.8504 10.868V7.5H28.1004V10.8046L23.5593 7.50874L21.3566 10.5436L28.1004 15.4382V26.7466L18.5376 21.1534L17.7146 12.6872L14.0008 13.0344L14.5641 18.8293L11.6785 17.1416L9.8217 20.3996L12.6525 22.0553L7.51592 24.4132L9.07601 27.8451L16.626 24.3794L26.2396 30.0022Z" fill="url(#paint0_linear_220_1034)"/>
<defs>
<linearGradient id="paint0_linear_220_1034" x1="29.9964" y1="7.5" x2="29.9964" y2="52.5" gradientUnits="userSpaceOnUse">
<stop offset="1" stop-color="#D9E2F3"/>
</linearGradient>
</defs>
</svg>
